<svg width="106" height="86" viewBox="0 0 106 86" fill="none" xmlns="http://www.w3.org/2000/svg">
<path fill-rule="evenodd" clip-rule="evenodd" d="M4.63515 43.1235H8.66451V64.3712H4.63515C2.43584 64.3712 0.637169 62.5722 0.637169 60.3736V47.1215C0.637169 44.9225 2.43584 43.1235 4.63515 43.1235Z" fill="#FF5252"/>
<path fill-rule="evenodd" clip-rule="evenodd" d="M101.176 43.1235H97.147V64.3712H101.176C103.376 64.3712 105.174 62.5722 105.174 60.3736V47.1215C105.174 44.9225 103.376 43.1235 101.176 43.1235Z" fill="#FF5252"/>
<path fill-rule="evenodd" clip-rule="evenodd" d="M36.0736 43.1235H69.7383C75.581 43.1235 80.3614 47.9038 80.3614 53.747V53.7477C80.3614 59.5913 75.581 64.3712 69.7383 64.3712H36.0736C30.2305 64.3712 25.4501 59.5913 25.4501 53.7477V53.747C25.4501 47.9038 30.2305 43.1235 36.0736 43.1235Z" fill="#FF5252"/>
<path fill-rule="evenodd" clip-rule="evenodd" d="M25.9169 20.8639H80.2794L70.9764 30.1669H35.2198L25.9169 20.8639Z" fill="#FF5252"/>
<path fill-rule="evenodd" clip-rule="evenodd" d="M21.397 0.292343H24.1659C25.1278 0.292343 25.9146 1.07924 25.9146 2.04113V20.8639H25.3258C23.3234 20.8639 21.4068 21.2521 19.6482 21.9562V2.04113C19.6482 1.07924 20.4351 0.292343 21.397 0.292343Z" fill="#ffffff"/>
<path fill-rule="evenodd" clip-rule="evenodd" d="M82.0278 0.292343H84.7967C85.7586 0.292343 86.5454 1.07924 86.5454 2.04113V21.9562C84.7864 21.2521 82.8702 20.8639 80.8675 20.8639H80.279V2.04113C80.279 1.07924 81.0659 0.292343 82.0278 0.292343Z" fill="#ffffff"/>
<path fill-rule="evenodd" clip-rule="evenodd" d="M86.5462 21.9566C92.2189 24.2281 96.2532 29.7904 96.2532 36.25V70.3882C96.2532 78.851 89.3298 85.7743 80.8675 85.7743H25.3258C16.8634 85.7743 9.9401 78.851 9.9401 70.3882V36.25C9.9401 29.7904 13.9744 24.2281 19.6471 21.9566L28.0316 30.3411C23.0543 31.2531 19.2517 35.6385 19.2517 40.869V65.7606C19.2517 71.6468 24.0676 76.4627 29.9538 76.4627H76.2394C82.1257 76.4627 86.9416 71.6468 86.9416 65.7606V40.869C86.9416 35.6385 83.139 31.2531 78.1617 30.3411L86.5462 21.9566Z" fill="#ffffff"/>
</svg>
