<svg width="106" height="86" viewBox="0 0 106 86" fill="none" xmlns="http://www.w3.org/2000/svg">
<path d="M24.0352 0.62616H21.6C20.7505 0.62616 20.0618 3.81244 20.0618 7.74297V19.0113C20.0618 22.9418 20.7505 26.1282 21.6 26.1282H24.0352C24.8847 26.1282 25.5735 22.9418 25.5735 19.0113V7.74297C25.5735 3.81244 24.8847 0.62616 24.0352 0.62616Z" fill="white" stroke="white" stroke-width="0.755906" stroke-miterlimit="22.9256" stroke-linecap="round" stroke-linejoin="round"/>
<path d="M84.6668 0.62616H82.2316C81.3821 0.62616 80.6934 3.89688 80.6934 7.93157V19.4985C80.6934 23.5332 81.3821 26.8039 82.2316 26.8039H84.6668C85.5163 26.8039 86.205 23.5332 86.205 19.4985V7.93157C86.205 3.89688 85.5163 0.62616 84.6668 0.62616Z" fill="white" stroke="white" stroke-width="0.755906" stroke-miterlimit="22.9256" stroke-linecap="round" stroke-linejoin="round"/>
<path fill-rule="evenodd" clip-rule="evenodd" d="M85.9027 84.5286C91.7197 82.4503 95.9124 76.875 95.9124 70.3667V36.2595C95.9124 27.9921 89.1489 21.2291 80.882 21.2291H25.3849C17.1183 21.2291 10.3548 27.9921 10.3548 36.2595V70.3667C10.3548 76.875 14.5471 82.4503 20.3642 84.5286L28.1908 76.702C22.9486 75.8607 18.9105 71.2893 18.9105 65.8192V40.807C18.9105 34.7447 23.87 29.7852 29.9324 29.7852H76.3344C82.3968 29.7852 87.3566 34.7447 87.3566 40.807V65.8192C87.3566 71.289 83.319 75.8607 78.0764 76.702L85.9027 84.5286Z" fill="black" stroke="black" stroke-width="0.755906" stroke-miterlimit="22.9256"/>
<path fill-rule="evenodd" clip-rule="evenodd" d="M85.9027 22.0565C91.7197 24.1344 95.9124 29.71 95.9124 36.2179V70.3255C95.9124 78.5925 89.1489 85.3556 80.882 85.3556H25.3849C17.1183 85.3556 10.3548 78.5925 10.3548 70.3255V36.2179C10.3548 29.71 14.5471 24.1344 20.3642 22.0565L28.1908 29.8827C22.9486 30.7241 18.9105 35.2958 18.9105 40.7655V65.7776C18.9105 71.84 23.87 76.7999 29.9324 76.7999H76.3344C82.3968 76.7999 87.3566 71.84 87.3566 65.7776V40.7655C87.3566 35.2958 83.319 30.7241 78.0764 29.8827L85.9027 22.0565Z" fill="white" stroke="white" stroke-width="0.755906" stroke-miterlimit="22.9256" stroke-linecap="round"/>
<path fill-rule="evenodd" clip-rule="evenodd" d="M25.4922 21.1875H80.7746L72.2189 29.7436H34.0483L25.4922 21.1875Z" fill="#FF5252" stroke="#FF5252" stroke-width="0.755906" stroke-miterlimit="22.9256" stroke-linecap="round"/>
<path fill-rule="evenodd" clip-rule="evenodd" d="M4.67194 43.082H8.70128V64.3297H4.67194C2.47264 64.3297 0.67395 62.5306 0.67395 60.332V47.0799C0.67395 44.881 2.47264 43.082 4.67194 43.082Z" fill="#FF5252"/>
<path fill-rule="evenodd" clip-rule="evenodd" d="M101.213 43.082H97.1838V64.3297H101.213C103.412 64.3297 105.211 62.5306 105.211 60.332V47.0799C105.211 44.881 103.412 43.082 101.213 43.082Z" fill="#FF5252"/>
<path d="M73.8056 43.082H32.08C28.4387 43.082 25.4869 47.8384 25.4869 53.7058C25.4869 59.5732 28.4387 64.3297 32.08 64.3297H73.8056C77.4468 64.3297 80.3986 59.5732 80.3986 53.7058C80.3986 47.8384 77.4468 43.082 73.8056 43.082Z" fill="#FF5252"/>
<path d="M38.332 51.8361C38.332 49.8574 37.0421 48.2534 35.4509 48.2534C33.8597 48.2534 32.5698 49.8574 32.5698 51.8361V55.5751C32.5698 57.5538 33.8597 59.1578 35.4509 59.1578C37.0421 59.1578 38.332 57.5538 38.332 55.5751V51.8361Z" fill="black"/>
<path d="M73.6974 51.8361C73.6974 49.8574 72.4075 48.2534 70.8163 48.2534C69.2251 48.2534 67.9352 49.8574 67.9352 51.8361V55.5751C67.9352 57.5538 69.2251 59.1578 70.8163 59.1578C72.4075 59.1578 73.6974 57.5538 73.6974 55.5751V51.8361Z" fill="black"/>
</svg>
