<svg width="105" height="87" viewBox="0 0 105 87" fill="none" xmlns="http://www.w3.org/2000/svg">
<path fill-rule="evenodd" clip-rule="evenodd" d="M4.38569 43.5874H8.41506V64.8351H4.38569C2.18638 64.8351 0.387695 63.0361 0.387695 60.8375V47.5854C0.387695 45.3864 2.18638 43.5874 4.38569 43.5874Z" fill="#FF5252"/>
<path fill-rule="evenodd" clip-rule="evenodd" d="M100.927 43.5874H96.8976V64.8351H100.927C103.126 64.8351 104.925 63.0361 104.925 60.8375V47.5854C104.925 45.3864 103.126 43.5874 100.927 43.5874Z" fill="#FF5252"/>
<path fill-rule="evenodd" clip-rule="evenodd" d="M35.8242 43.5874H69.4888C75.3316 43.5874 80.1119 48.3678 80.1119 54.2109V54.2116C80.1119 60.0552 75.3316 64.8351 69.4888 64.8351H35.8242C29.981 64.8351 25.2007 60.0552 25.2007 54.2116V54.2109C25.2007 48.3678 29.981 43.5874 35.8242 43.5874ZM35.1643 48.7589H35.1651C36.7498 48.7589 38.0454 50.0553 38.0454 51.6401V56.7829C38.0454 58.3677 36.7498 59.6632 35.1651 59.6632H35.1643C33.5795 59.6632 32.2835 58.3677 32.2835 56.7829V51.6401C32.2835 50.0553 33.5795 48.7589 35.1643 48.7589ZM70.5297 48.7589H70.5308C72.1152 48.7589 73.4112 50.0553 73.4112 51.6401V56.7829C73.4112 58.3677 72.1152 59.6632 70.5308 59.6632H70.5297C68.9453 59.6632 67.6489 58.3677 67.6489 56.7829V51.6401C67.6489 50.0553 68.9453 48.7589 70.5297 48.7589Z" fill="#FF5252"/>
<path fill-rule="evenodd" clip-rule="evenodd" d="M25.6675 21.3279H80.0299L70.727 30.6308H34.9704L25.6675 21.3279Z" fill="#FF5252"/>
<path fill-rule="evenodd" clip-rule="evenodd" d="M21.1475 0.756287H23.9164C24.8783 0.756287 25.6652 1.54317 25.6652 2.50506V21.3279H25.0763C23.0739 21.3279 21.1574 21.716 19.3987 22.4201V2.50506C19.3987 1.54317 20.1857 0.756287 21.1475 0.756287Z" fill="#ffffff"/>
<path fill-rule="evenodd" clip-rule="evenodd" d="M81.7783 0.756287H84.5472C85.5091 0.756287 86.296 1.54317 86.296 2.50506V22.4201C84.537 21.716 82.6208 21.3279 80.618 21.3279H80.0295V2.50506C80.0295 1.54317 80.8164 0.756287 81.7783 0.756287Z" fill="#ffffff"/>
<path fill-rule="evenodd" clip-rule="evenodd" d="M86.2968 22.4206C91.9694 24.6921 96.0037 30.2544 96.0037 36.714V70.8522C96.0037 79.315 89.0804 86.2383 80.618 86.2383H25.0763C16.614 86.2383 9.69067 79.315 9.69067 70.8522V36.714C9.69067 30.2544 13.7249 24.6921 19.3976 22.4206L27.7821 30.8051C22.8049 31.7171 19.0023 36.1024 19.0023 41.3329V66.2245C19.0023 72.1107 23.8181 76.9266 29.7044 76.9266H75.99C81.8762 76.9266 86.6921 72.1107 86.6921 66.2245V41.3329C86.6921 36.1024 82.8895 31.7171 77.9123 30.8051L86.2968 22.4206Z" fill="#ffffff"/>
<path fill-rule="evenodd" clip-rule="evenodd" d="M32.2835 51.6401V56.7829C32.2835 58.3676 33.5795 59.6632 35.1651 59.6632C36.7498 59.6632 38.0454 58.3676 38.0454 56.7829V51.6401C38.0454 50.0553 36.7498 48.7589 35.1643 48.7589C33.5795 48.7589 32.2835 50.0553 32.2835 51.6401Z" fill="#000000"/>
<path fill-rule="evenodd" clip-rule="evenodd" d="M67.649 51.6401V56.7829C67.649 58.3676 68.9453 59.6632 70.5308 59.6632C72.1152 59.6632 73.4112 58.3676 73.4112 56.7829V51.6401C73.4112 50.0553 72.1152 48.7589 70.5297 48.7589C68.9453 48.7589 67.649 50.0553 67.649 51.6401Z" fill="#000000"/>
</svg>
