<svg width="134" height="61" viewBox="0 0 134 61" fill="none" xmlns="http://www.w3.org/2000/svg">
<path fill-rule="evenodd" clip-rule="evenodd" d="M41.6471 38.2567C41.6471 40.7856 40.6059 42.5559 38.523 43.5677C40.844 44.6089 42.0043 46.4983 42.0043 49.2355V52.8956C42.0043 58.1022 38.969 60.7056 32.8994 60.7056H0.899658V28.0807H32.944C38.7463 28.0807 41.6471 30.5654 41.6471 35.5339V38.2567ZM11.6112 46.5581V52.806H29.3739C30.5939 52.806 31.2035 52.2704 31.2035 51.1993V48.1644C31.2035 47.0932 30.5939 46.5581 29.3739 46.5581H11.6112ZM11.6112 40.0418H29.6861C30.668 40.0418 31.1589 39.6253 31.1589 38.7923V37.2302C31.1589 36.3968 30.668 35.9807 29.6861 35.9807H11.6112V40.0418Z" fill="#FF5252"/>
<path fill-rule="evenodd" clip-rule="evenodd" d="M106.406 60.7056V36.2037H90.6956V28.0807H133.183V36.2037H117.474V60.7056H106.406Z" fill="#FF5252"/>
<path fill-rule="evenodd" clip-rule="evenodd" d="M59.499 36.2033C59.3988 36.2033 59.3028 36.207 59.2113 36.215L50.557 29.0029C51.9206 28.388 53.6365 28.0799 55.7051 28.0799H78.7798C84.8501 28.0799 87.8847 30.7282 87.8847 36.0245V52.7618C87.8847 58.058 84.8501 60.7063 78.7798 60.7063H55.7051C49.6352 60.7063 46.6002 58.058 46.6002 52.7618V36.0245C46.6002 33.4979 47.2915 31.5741 48.6729 30.2528L57.6727 37.7525L57.6689 37.8991V50.8871C57.6689 52.0478 58.2793 52.6276 59.499 52.6276H74.9859C76.206 52.6276 76.8164 52.0478 76.8164 50.8871V37.8991C76.8164 36.7683 76.206 36.2033 74.9859 36.2033H59.499Z" fill="#FF5252"/>
<path fill-rule="evenodd" clip-rule="evenodd" d="M10.1765 6.09669C10.1047 6.09669 10.0355 6.09933 9.96977 6.105L3.74526 0.917981C4.72605 0.475398 5.96044 0.253906 7.44807 0.253906H24.0436C28.4093 0.253906 30.592 2.15879 30.592 5.9678V18.0056C30.592 21.8146 28.4093 23.7191 24.0436 23.7191H7.44807C3.08233 23.7191 0.899658 21.8146 0.899658 18.0056V5.9678C0.899658 4.15098 1.39667 2.76692 2.3903 1.81674L8.86274 7.21089L8.8601 7.31634V16.6571C8.8601 17.492 9.29928 17.9092 10.1765 17.9092H21.3152C22.1924 17.9092 22.6316 17.492 22.6316 16.6571V7.31634C22.6316 6.50299 22.1924 6.09669 21.3152 6.09669H10.1765Z" fill="#ffffff"/>
<path fill-rule="evenodd" clip-rule="evenodd" d="M49.82 17.492L59.482 0.254303H68.2452V0.543064L55.5335 22.1143C55.213 22.6707 54.7954 23.0774 54.2817 23.334C53.7685 23.5906 53.1906 23.7195 52.5484 23.7195H47.0594C46.4173 23.7195 45.8451 23.5906 45.342 23.334C44.839 23.0774 44.4164 22.6707 44.074 22.1143L31.3627 0.543064V0.254303H40.158L49.82 17.492Z" fill="#ffffff"/>
<path fill-rule="evenodd" clip-rule="evenodd" d="M78.7095 8.72877H94.2139V13.6403H78.7095V17.9092H98.9648V23.7195H70.7487V0.254303H98.9648V6.0967H78.7095V8.72877Z" fill="#ffffff"/>
<path fill-rule="evenodd" clip-rule="evenodd" d="M102.464 0.254303H125.479C129.845 0.254303 132.027 2.1588 132.027 5.96781V9.78816C132.027 13.2975 130.198 15.1914 126.538 15.4699L133.183 23.4304V23.7195H124.388L117.647 15.5017H110.424V23.7195H102.464V0.254303ZM124.195 7.21996C124.195 6.38545 123.746 5.96781 122.847 5.96781H110.424V10.5584H122.847C123.746 10.5584 124.195 10.1412 124.195 9.30664V7.21996Z" fill="#ffffff"/>
</svg>
